/* XPM */
static char * njamicon_xpm[] = {
"32 32 233 2",
"  	c None",
". 	c #F3FF91",
"+ 	c #FFFF9E",
"@ 	c #000000",
"# 	c #DAF278",
"$ 	c #2D2C1F",
"% 	c #696748",
"& 	c #7F7D53",
"* 	c #93905C",
"= 	c #7E7C49",
"- 	c #686538",
"; 	c #2D2B15",
"> 	c #4C4B36",
", 	c #B2B080",
"' 	c #ECE8A4",
") 	c #F6F1A4",
"! 	c #F6F19B",
"~ 	c #F5F092",
"{ 	c #F5EF88",
"] 	c #F3ED7D",
"^ 	c #E8E26D",
"/ 	c #B0AA49",
"( 	c #4B481B",
"_ 	c #949269",
": 	c #F1EDAC",
"< 	c #F7F3A9",
"[ 	c #F7F3A0",
"} 	c #F6F193",
"| 	c #F6F087",
"1 	c #F5EE7C",
"2 	c #F4EE74",
"3 	c #F4ED6D",
"4 	c #F4EC65",
"5 	c #F2EA5C",
"6 	c #EBE34B",
"7 	c #908B26",
"8 	c #2C2A09",
"9 	c #2D2C1D",
"0 	c #A5A271",
"a 	c #F6F2A9",
"b 	c #F7F3A4",
"c 	c #F6F195",
"d 	c #F5EF84",
"e 	c #F4EC67",
"f 	c #F3EB60",
"g 	c #F3EB5A",
"h 	c #F3EA56",
"i 	c #F2EA54",
"j 	c #F2E94D",
"k 	c #F1E841",
"l 	c #EEE432",
"m 	c #9F9819",
"n 	c #2B2904",
"o 	c #939161",
"p 	c #F5F1A2",
"q 	c #F7F29C",
"r 	c #F6F08B",
"s 	c #F2E94E",
"t 	c #F1E843",
"u 	c #F1E83E",
"v 	c #F1E73B",
"w 	c #F1E73C",
"x 	c #F0E633",
"y 	c #F0E526",
"z 	c #EDE116",
"A 	c #8B8408",
"B 	c #4C4A2E",
"C 	c #F0EB96",
"D 	c #F4ED6B",
"E 	c #F1E739",
"F 	c #F0E529",
"G 	c #EFE422",
"H 	c #EFE41E",
"I 	c #7B7514",
"J 	c #EBDF0D",
"K 	c #E0D50C",
"L 	c #CFC50C",
"M 	c #403D03",
"N 	c #B1AD65",
"O 	c #F5EF8A",
"P 	c #F5EF7E",
"Q 	c #F2E949",
"R 	c #F0E62F",
"S 	c #EEE315",
"T 	c #EEE211",
"U 	c #EDE10D",
"V 	c #E8DD0D",
"W 	c #E6DA0D",
"X 	c #D8CD0C",
"Y 	c #CBC10B",
"Z 	c #C0B70B",
"` 	c #B5AC0A",
" .	c #878108",
"..	c #2D2B17",
"+.	c #ECE77B",
"@.	c #F5EE7A",
"#.	c #F4EC69",
"$.	c #EEE313",
"%.	c #EEE20F",
"&.	c #E3D70C",
"*.	c #DACF0C",
"=.	c #CFC50B",
"-.	c #C3B90B",
";.	c #A59D09",
">.	c #9A9208",
",.	c #948D08",
"'.	c #787206",
").	c #212002",
"!.	c #676430",
"~.	c #F2EB70",
"{.	c #EFE524",
"].	c #DDD20C",
"^.	c #D1C70B",
"/.	c #ADA409",
"(.	c #979008",
"_.	c #857F07",
":.	c #7A7407",
"<.	c #777107",
"[.	c #7D7707",
"}.	c #5C5705",
"|.	c #7D7932",
"1.	c #F2EB61",
"2.	c #F2E845",
"3.	c #F0E631",
"4.	c #EFE41C",
"5.	c #EADE0D",
"6.	c #D9CF0C",
"7.	c #C9BF0B",
"8.	c #B3AA0A",
"9.	c #9C9409",
"0.	c #706A06",
"a.	c #656006",
"b.	c #5D5906",
"c.	c #454104",
"d.	c #222002",
"e.	c #908C31",
"f.	c #F1E950",
"g.	c #F2E947",
"h.	c #F0E528",
"i.	c #EFE316",
"j.	c #DED30B",
"k.	c #B1A80A",
"l.	c #8F8808",
"m.	c #7C7607",
"n.	c #5E5905",
"o.	c #353203",
"p.	c #161501",
"q.	c #010100",
"r.	c #7C7722",
"s.	c #F0E73F",
"t.	c #DFD40B",
"u.	c #D1C60B",
"v.	c #A09708",
"w.	c #373403",
"x.	c #121101",
"y.	c #666115",
"z.	c #EEE42C",
"A.	c #EFE31A",
"B.	c #BFB60A",
"C.	c #555105",
"D.	c #040400",
"E.	c #2B2906",
"F.	c #E4D819",
"G.	c #E7DC0D",
"H.	c #E5D90C",
"I.	c #B8AE0A",
"J.	c #4B4704",
"K.	c #020200",
"L.	c #A79F09",
"M.	c #E4D80C",
"N.	c #DFD40C",
"O.	c #D7CC0C",
"P.	c #CEC40B",
"Q.	c #9F9709",
"R.	c #2F2C03",
"S.	c #444104",
"T.	c #D2C70B",
"U.	c #D4C90C",
"V.	c #D6CC0C",
"W.	c #DCD10C",
"X.	c #E2D60C",
"Y.	c #C4BB0B",
"Z.	c #B9B00A",
"`.	c #B2A90A",
" +	c #938B08",
".+	c #787207",
"++	c #C0B60B",
"@+	c #BEB50A",
"#+	c #C3BA0B",
"$+	c #C6BD0B",
"%+	c #C8BE0B",
"&+	c #C1B80B",
"*+	c #B8AF0A",
"=+	c #ABA309",
"-+	c #9D9509",
";+	c #948C08",
">+	c #908908",
",+	c #5A5505",
"'+	c #232102",
")+	c #797207",
"!+	c #A9A109",
"~+	c #A69D09",
"{+	c #A8A009",
"]+	c #A09809",
"^+	c #978F08",
"/+	c #898207",
"(+	c #7B7507",
"_+	c #6B6606",
":+	c #4C4804",
"<+	c #171601",
"[+	c #201E02",
"}+	c #5F5B05",
"|+	c #8C8508",
"1+	c #888207",
"2+	c #847D07",
"3+	c #645F05",
"4+	c #585405",
"5+	c #514D05",
"6+	c #343103",
"7+	c #2C2A02",
"8+	c #726D07",
"9+	c #726C06",
"0+	c #6C6706",
"a+	c #676106",
"b+	c #565105",
"c+	c #363303",
"d+	c #181701",
"e+	c #333103",
"f+	c #363403",
"g+	c #2C2A03",
"h+	c #222102",
"i+	c #0F0E01",
"j+	c #CEE66C",
". + + + + + + + + + + + + + + + + + + + + + + + + + + + + + + + ",
". @ @ @ @ @ @ @ @ @ @ @ @ @ @ @ @ @ @ @ @ @ @ @ @ @ @ @ @ @ @ # ",
". @ @ @ @ @ @ @ @ @ @ @ @ @ @ @ @ @ @ @ @ @ @ @ @ @ @ @ @ @ @ # ",
". @ @ @ @ @ @ @ @ @ @ @ @ @ @ @ @ @ @ @ @ @ @ @ @ @ @ @ @ @ @ # ",
". @ @ @ @ @ @ @ @ @ @ @ @ @ @ @ @ @ @ @ @ @ @ @ @ @ @ @ @ @ @ # ",
". @ @ @ @ @ @ @ @ @ @ @ @ @ @ @ @ @ @ @ @ @ @ @ @ @ @ @ @ @ @ # ",
". @ @ @ @ @ @ @ @ @ @ @ @ $ % & * = - ; @ @ @ @ @ @ @ @ @ @ @ # ",
". @ @ @ @ @ @ @ @ @ @ > , ' ) ! ~ { ] ^ / ( @ @ @ @ @ @ @ @ @ # ",
". @ @ @ @ @ @ @ @ $ _ : < [ } | 1 2 3 4 5 6 7 8 @ @ @ @ @ @ @ # ",
". @ @ @ @ @ @ @ 9 0 a b c d 2 e f g h i j k l m n @ @ @ @ @ @ # ",
". @ @ @ @ @ @ @ o p q r 2 f s t u v w w v x y z A @ @ @ @ @ @ # ",
". @ @ @ @ @ @ B C c d D s E F G H H H G G I J K L M @ @ @ @ @ # ",
". @ @ @ @ @ @ N O P e Q R H S T U J V W K X Y Z `  .@ @ @ @ @ # ",
". @ @ @ @ @ ..+.@.#.s x H $.%.U V &.*.=.-.` ;.>.,.'.).@ @ @ @ # ",
". @ @ @ @ @ !.~.e h w {.S T %.J W ].^.Z /.(._.:.<.[.}.@ @ @ @ # ",
". @ @ @ @ @ |.1.h 2.3.4.T %.U 5.&.6.7.8.9._.0.a.b.c.d.@ @ @ @ # ",
". @ @ @ @ @ e.f.g.v h.i.%.%.U V j.^.k.l.m.n.o.p.q.@ @ @ @ @ @ # ",
". @ @ @ @ @ r.s.E R G S %.U U V t.u.v.w.x.@ @ @ @ @ @ @ @ @ @ # ",
". @ @ @ @ @ y.z.h.{.A.T U U U 5.W K 6.B.C.D.@ @ @ @ @ @ @ @ @ # ",
". @ @ @ @ @ E.F.i.S T U J U U J V G.H.K *.I.J.K.@ @ @ @ @ @ @ # ",
". @ @ @ @ @ @ L.M.&.H.H.W V J J J 5.V W N.O.P.Q.R.@ @ @ @ @ @ # ",
". @ @ @ @ @ @ S.L T.T.U.V.W.K X.&.X.K *.u.Y.Z.`. +D.@ @ @ @ @ # ",
". @ @ @ @ @ @ @ .+++@+@+@+#+$+%+%+$+&+*+=+-+;+>+,+@ @ @ @ @ @ # ",
". @ @ @ @ @ @ @ '+)+!+L.~+L.{+{+~+]+^+/+(+0._+:+<+@ @ @ @ @ @ # ",
". @ @ @ @ @ @ @ @ [+}+ +>+|+A 1+2+(+0.3+4+5+6+x.@ @ @ @ @ @ @ # ",
". @ @ @ @ @ @ @ @ @ @ 7+n.8+9+0+a+n.b+:+c+d+@ @ @ @ @ @ @ @ @ # ",
". @ @ @ @ @ @ @ @ @ @ @ @ p.d.e+f+g+h+i+@ @ @ @ @ @ @ @ @ @ @ # ",
". @ @ @ @ @ @ @ @ @ @ @ @ @ @ @ @ @ @ @ @ @ @ @ @ @ @ @ @ @ @ # ",
". @ @ @ @ @ @ @ @ @ @ @ @ @ @ @ @ @ @ @ @ @ @ @ @ @ @ @ @ @ @ # ",
". @ @ @ @ @ @ @ @ @ @ @ @ @ @ @ @ @ @ @ @ @ @ @ @ @ @ @ @ @ @ # ",
". @ @ @ @ @ @ @ @ @ @ @ @ @ @ @ @ @ @ @ @ @ @ @ @ @ @ @ @ @ @ # ",
". j+j+j+j+j+j+j+j+j+j+j+j+j+j+j+j+j+j+j+j+j+j+j+j+j+j+j+j+j+j+j+"};
